<svg xmlns="http://www.w3.org/2000/svg" viewBox="0 0 64 64"><defs><linearGradient id="o" x1="0" y1="0" x2="1" y2="1"><stop offset="0" stop-color="#D5A332"/><stop offset=".5" stop-color="#FDCF55"/><stop offset="1" stop-color="#D5A332"/></linearGradient></defs><circle cx="32" cy="32" r="30.5" fill="#102A43" stroke="url(#o)" stroke-width="3"/><path transform="translate(-70.79 17.68) scale(0.9744)" fill="url(#o)" fill-rule="evenodd" d="M105.47 29.38L86.04 8.43L91.96 0.00L118.96 0.00L124.88 8.43L105.47 29.38M121.78 7.22L118.57 2.66L116.33 7.22L121.78 7.22M106.41 5.45L108.50 1.90L106.41 1.90L106.41 5.45M114.86 6.00L116.93 1.90L112.17 1.91L114.86 6.00M113.44 9.00L106.41 9.00L106.41 23.26L113.44 9.00M121.62 9.00L115.42 9.00L108.42 23.17L121.62 9.00M113.46 7.22L110.35 2.46L107.49 7.22L113.46 7.22M89.14 7.22L94.59 7.22L92.35 2.66L89.14 7.22M104.51 5.45L104.51 1.90L102.42 1.90L104.51 5.45M96.06 6.00L98.75 1.91L93.99 1.90L96.06 6.00M97.48 9.00L104.51 23.26L104.51 9.00L97.48 9.00M89.30 9.00L102.50 23.17L95.50 9.00L89.30 9.00M97.46 7.22L103.44 7.22L100.57 2.46L97.46 7.22"/></svg>
